<?xml version="1.0" encoding="utf-8"?>
<!-- Generator: Adobe Illustrator 26.0.2, SVG Export Plug-In . SVG Version: 6.00 Build 0)  -->
<svg version="1.1" id="Ebene_1" xmlns="http://www.w3.org/2000/svg" xmlns:xlink="http://www.w3.org/1999/xlink" x="0px" y="0px"
	 viewBox="0 0 403 50" style="enable-background:new 0 0 403 50;" xml:space="preserve">
<style type="text/css">
	.st0{fill:#4B7A9C;}
	.st1{fill:#8596A8;}
</style>
<g>
	<path class="st0" d="M191.6,48.5V7.6h18.1V1.1h-43.3v6.5h18v40.9H191.6z M122.2,24.8c0-9.7,7.5-17.4,17.2-17.4s17.2,7.7,17.2,17.4
		s-7.5,17.6-17.2,17.6S122.2,34.5,122.2,24.8 M115.1,24.8c0,13.5,10.8,24.3,24.3,24.3c13.4,0,24.3-10.8,24.3-24.3
		c0-13.4-10.9-24.3-24.3-24.3C125.9,0.5,115.1,11.4,115.1,24.8 M87.6,49.6l26.2-48.5H106L87.6,35.6L69.3,1.1h-7.9L87.6,49.6z
		 M54.7,1.1h-7.1v47.4h7.1V1.1z M24.3,30.5c8.3,0,14.9-5.9,14.9-14.5S32.6,1.1,24.3,1.1H1v47.4h7.1v-18H24.3z M23.6,7.6
		c4.9,0,8.5,3.2,8.5,8.3c0,5.6-4.2,8.1-9.4,8.1H8.1V7.6H23.6z"/>
</g>
<text transform="matrix(1 0 0 1 404.3945 19.8354)" class="st1" style="font-family:'FuturaPT-Medium'; font-size:27.8736px;"> </text>
<g>
	<path class="st1" d="M225.8,1.2c1.1,0,2.7,0.1,4.1,1c1.6,1,2.3,2.8,2.3,4.5c0,1.1-0.3,2.8-1.8,4.1c-1.5,1.3-3.2,1.4-4.5,1.4h-1.3
		v7.6h-2.8V1.2H225.8z M224.5,9.7h1.3c2.5,0,3.6-1.2,3.6-2.9c0-1-0.4-2.9-3.7-2.9h-1.3V9.7z"/>
	<path class="st1" d="M238.8,1.2v11.2c0,1,0,2.2,0.6,3.2c0.6,0.9,1.8,1.9,3.5,1.9s2.9-1,3.5-1.9c0.6-1,0.6-2.2,0.6-3.2V1.2h2.8v12
		c0,1.5-0.3,3.3-1.7,4.8c-1,1.1-2.6,2.2-5.2,2.2s-4.2-1.1-5.2-2.2c-1.4-1.6-1.7-3.3-1.7-4.8v-12H238.8z"/>
	<path class="st1" d="M256.9,1.2c2.4,0,3.9,0.3,5.1,1.4c1,0.9,1.5,2.1,1.5,3.7c0,0.7-0.1,1.5-0.6,2.2c-0.4,0.7-1,1.1-1.4,1.3
		c0.3,0.1,1.5,0.4,2.4,1.3c1,1.1,1.2,2.3,1.2,3.5c0,1.3-0.3,2.4-1.2,3.3c-1.5,1.6-3.8,1.8-5.2,1.8h-4.7V1.2H256.9z M257,9.2h0.9
		c0.7,0,1.6-0.1,2.3-0.7c0.6-0.6,0.7-1.5,0.7-2.1c0-0.6-0.1-1.2-0.7-1.8c-0.6-0.6-1.4-0.7-2.3-0.7h-1V9.2z M257,17.2h1.7
		c0.8,0,2.1-0.1,2.8-0.7c0.6-0.4,0.9-1.2,0.9-2.1c0-0.8-0.3-1.5-0.8-2c-0.8-0.8-1.9-0.8-2.9-0.8H257V17.2z"/>
	<path class="st1" d="M272,1.2v15.9h5.5v2.7h-8.3V1.2H272z"/>
	<path class="st1" d="M283.4,1.2v18.6h-2.8V1.2H283.4z"/>
	<path class="st1" d="M302.1,5.6c-2.1-1.9-4-2.1-5-2.1c-4,0-6.8,3-6.8,7.1c0,3.9,2.8,7,6.8,7c2.2,0,4-1.1,5-2.1v3.4
		c-1.9,1.1-3.8,1.4-5.1,1.4c-3.4,0-5.5-1.5-6.6-2.6c-2.2-2-3-4.4-3-7c0-3.4,1.4-5.8,3-7.3c1.9-1.8,4.2-2.4,6.7-2.4
		c1.7,0,3.3,0.3,5,1.3V5.6z"/>
	<path class="st1" d="M319.5,1.2c1.1,0,2.7,0.1,4.1,1c1.6,1,2.3,2.8,2.3,4.5c0,1.1-0.3,2.8-1.8,4.1c-1.5,1.3-3.2,1.4-4.5,1.4h-1.3
		v7.6h-2.8V1.2H319.5z M318.2,9.7h1.3c2.5,0,3.6-1.2,3.6-2.9c0-1-0.4-2.9-3.7-2.9h-1.3V9.7z"/>
	<path class="st1" d="M347.6,10.6c0,5.5-4.1,9.6-9.7,9.6s-9.7-4.2-9.7-9.6c0-5.5,4.1-9.6,9.7-9.6S347.6,5.1,347.6,10.6z M344.8,10.6
		c0-4.1-2.8-7-6.8-7s-6.8,2.9-6.8,7s2.8,7,6.8,7S344.8,14.7,344.8,10.6z"/>
	<path class="st1" d="M354.4,1.2v15.9h5.5v2.7h-8.3V1.2H354.4z"/>
	<path class="st1" d="M365.8,1.2v18.6h-2.8V1.2H365.8z"/>
	<path class="st1" d="M384.4,5.6c-2.1-1.9-4-2.1-5-2.1c-4,0-6.8,3-6.8,7.1c0,3.9,2.8,7,6.8,7c2.2,0,4-1.1,5-2.1v3.4
		c-1.9,1.1-3.8,1.4-5.1,1.4c-3.4,0-5.5-1.5-6.6-2.6c-2.2-2-3-4.4-3-7c0-3.4,1.4-5.8,3-7.3c1.9-1.8,4.2-2.4,6.7-2.4
		c1.7,0,3.3,0.3,5,1.3V5.6z"/>
	<path class="st1" d="M392.2,11.8l-6.1-10.6h3.2l4.3,7.4l4.3-7.4h3.2L395,11.8v8h-2.8V11.8z"/>
</g>
<g>
	<path class="st1" d="M236.1,41.6l-2.2,2.5l3.4,4.3h-3.5l-1.8-2.3c-0.4,0.4-1,0.9-1.6,1.4c-1.1,0.8-2.3,1.3-4.1,1.3
		c-3.5,0-5.6-2.3-5.6-5.3c0-2.5,1.3-3.7,2.7-4.8c0.5-0.4,1.3-0.9,1.5-1c-0.6-0.6-1.8-2.1-1.8-3.8c0-2.1,1.3-4.3,4.4-4.3
		c3,0,4.5,2,4.5,4c0,1.2-0.5,2-0.8,2.4c-0.4,0.6-1.1,1.2-2.3,2.1l3.3,4l2.1-2.4L236.1,41.6z M226.6,39.7c-0.6,0.3-1.5,0.9-2,1.5
		c-0.8,0.8-1,1.7-1,2.4c0,1.5,1.1,2.8,2.9,2.8c0.8,0,1.4-0.3,2.1-0.7c0.6-0.4,1.4-1.2,1.7-1.5L226.6,39.7z M228.2,35.4
		c0.7-0.5,1.1-1.1,1.1-1.8c0-0.8-0.5-1.7-1.8-1.7c-1.1,0-1.8,0.7-1.8,1.6c0,0.6,0.3,1.3,0.6,1.6l0.8,1L228.2,35.4z"/>
	<path class="st1" d="M256.4,32.6H249v4.7h7.2v2.7H249v5.9h7.4v2.7h-10.3V29.9h10.3V32.6z"/>
	<path class="st1" d="M274.2,34.2c-2.1-1.9-4-2.1-5-2.1c-4,0-6.8,3-6.8,7.1c0,3.9,2.8,7,6.8,7c2.2,0,4-1.1,5-2.1v3.4
		c-1.9,1.1-3.8,1.4-5.1,1.4c-3.4,0-5.5-1.5-6.6-2.6c-2.2-2-3-4.4-3-7c0-3.4,1.4-5.8,3-7.3c1.9-1.8,4.2-2.4,6.7-2.4
		c1.7,0,3.3,0.3,5,1.3V34.2z"/>
	<path class="st1" d="M295.8,39.2c0,5.5-4.1,9.6-9.7,9.6s-9.7-4.2-9.7-9.6s4.1-9.6,9.7-9.6S295.8,33.7,295.8,39.2z M293,39.2
		c0-4.1-2.8-7-6.8-7s-6.8,2.9-6.8,7s2.8,7,6.8,7S293,43.3,293,39.2z"/>
	<path class="st1" d="M299.7,48.5V28.6l13.5,14.1V29.9h2.8v19.7l-13.5-14.1v13H299.7z"/>
	<path class="st1" d="M339.2,39.2c0,5.5-4.1,9.6-9.7,9.6s-9.7-4.2-9.7-9.6s4.1-9.6,9.7-9.6S339.2,33.7,339.2,39.2z M336.3,39.2
		c0-4.1-2.8-7-6.8-7s-6.8,2.9-6.8,7s2.8,7,6.8,7S336.3,43.3,336.3,39.2z"/>
	<path class="st1" d="M341.9,48.5l3.9-20l6.5,14.4l6.5-14.4l3.5,20h-2.9l-1.9-11.2l-5.4,12.1l-5.4-12.1l-2,11.2H341.9z"/>
	<path class="st1" d="M369.4,29.9v18.6h-2.8V29.9H369.4z"/>
	<path class="st1" d="M387.8,34.2c-2.1-1.9-4-2.1-5-2.1c-4,0-6.8,3-6.8,7.1c0,3.9,2.8,7,6.8,7c2.2,0,4-1.1,5-2.1v3.4
		c-1.9,1.1-3.8,1.4-5.1,1.4c-3.4,0-5.5-1.5-6.6-2.6c-2.2-2-3-4.4-3-7c0-3.4,1.4-5.8,3-7.3c1.9-1.8,4.2-2.4,6.7-2.4
		c1.7,0,3.3,0.3,5,1.3V34.2z"/>
	<path class="st1" d="M399.7,34c-0.2-0.4-0.4-0.8-0.8-1.2c-0.6-0.5-1.2-0.7-2-0.7c-1.7,0-2.6,1-2.6,2.2c0,0.6,0.2,1.5,2,2.3l1.9,0.8
		c3.4,1.4,4.4,3.3,4.4,5.5c0,3.5-2.5,6-6,6c-2.1,0-3.4-0.8-4.4-1.9c-1-1.1-1.4-2.3-1.6-3.6l2.8-0.6c0,0.9,0.3,1.8,0.8,2.4
		c0.5,0.7,1.3,1.1,2.4,1.1c1.7,0,3.1-1.3,3.1-3.1c0-1.9-1.4-2.7-2.7-3.2l-1.8-0.8c-1.5-0.6-3.8-1.9-3.8-4.7c0-2.5,2-4.9,5.4-4.9
		c2,0,3.2,0.8,3.7,1.3c0.5,0.4,1,1.1,1.4,1.9L399.7,34z"/>
</g>
</svg>
