<svg version="1.1" id="Layer_1" xmlns="http://www.w3.org/2000/svg" xmlns:xlink="http://www.w3.org/1999/xlink" x="0px" y="0px" viewBox="0 0 300 110.63" style="enable-background:new 0 0 300 110.63;" xml:space="preserve">
    <style type="text/css">
        .st0{fill:#f9f1e3;}
    </style>
    <g>
        <g id="logo-text">
            <path class="st0" d="M18.43,97.59v12.83H16.1V97.59H18.43z"></path>
            <path class="st0" d="M36.84,110.41h-2.23v-9.69l-3.54,9.69h-1.53l-3.46-9.69v9.69h-2.09V97.59h3.24l3.2,8.82l3.27-8.82h3.15
                V110.41z"></path>
            <path class="st0" d="M52.81,101.28c0,2.57-1.79,3.78-4.24,3.78h-4.05v5.35h-2.33V97.59h6.44C50.9,97.59,52.81,98.8,52.81,101.28z
                M48.52,103.02c1.04,0,1.89-0.41,1.89-1.67c0-1.23-0.87-1.64-1.94-1.64h-3.95v3.3H48.52z"></path>
            <path class="st0" d="M56.78,110.41h-2.21l4.45-12.83h2.52l4.29,12.83h-2.37l-0.97-3h-4.7L56.78,110.41z M60.17,100.35l-1.72,5.09
                h3.39L60.17,100.35z"></path>
            <path class="st0" d="M75.26,110.63c-4.12,0-6.2-2.78-6.2-6.66c0-3.76,2.23-6.61,6.27-6.61c2.67,0,4.45,1.35,5.21,3.53L78.55,102
                c-0.51-1.4-1.38-2.54-3.22-2.54c-2.69,0-3.76,1.84-3.76,4.5c0,2.84,1.02,4.55,3.78,4.55c1.91,0,2.78-0.99,3.3-2.38l1.98,1.07
                C79.94,109.05,78.34,110.63,75.26,110.63z"></path>
            <path class="st0" d="M90.87,110.41h-2.33V99.7h-4.41v-2.11h11.24v2.11h-4.5V110.41z"></path>
            <path class="st0" d="M117.67,106.79c0,2.57-1.72,3.63-4.26,3.63h-6.66V97.59h6.29c2.23,0,4.24,1.02,4.24,3.61
                c0,1.45-0.77,2.27-2.04,2.64C116.71,104.2,117.67,105.06,117.67,106.79z M112.93,102.85c1.18,0,1.94-0.43,1.94-1.67
                c0-1.21-0.85-1.55-1.96-1.55h-3.9v3.22H112.93z M113.27,108.37c1.18,0,1.94-0.41,1.94-1.61c0-1.29-0.89-1.72-2-1.72h-4.16v3.33
                H113.27z"></path>
        </g>
    </g>
</svg>
